<svg xmlns="http://www.w3.org/2000/svg" width="960" height="640" viewBox="0 0 960 640">
  <defs><linearGradient id="violet" x1="0" y1="0" x2="1" y2="1"><stop stop-color="#b699ff"/><stop offset="1" stop-color="#7254e8"/></linearGradient></defs>
  <rect id="paper" width="960" height="640" fill="#f6f2eb" data-name="배경" data-locked="true"/>
  <g id="headline" fill="#26223c" font-family="Arial, sans-serif" data-name="타이포그래피"><text x="62" y="72" font-size="12" letter-spacing="3">DRAWING / VECTOR PLAYGROUND</text><text x="58" y="180" font-size="68" font-weight="700" letter-spacing="-3">Make something</text><text x="58" y="255" font-size="68" font-weight="700" letter-spacing="-3">wonderfully yours.</text><text x="62" y="298" font-size="15" fill="#767080">Ideas take shape. Every curve is a possibility.</text></g>
  <g id="flower" transform="translate(734 170)" data-name="벡터 꽃"><path d="M0-102C28-139 69-118 60-70C112-83 141-44 105-15C151 15 128 68 75 55C83 111 37 129 12 88C-18 140-72 112-60 66C-114 80-142 34-100 6C-140-26-109-73-65-58C-85-111-33-140 0-102Z" fill="url(#violet)"/><circle cx="12" cy="-8" r="31" fill="#f6f2eb"/><circle cx="12" cy="-8" r="12" fill="#302349"/></g>
  <g id="composition" data-name="패스 실험"><rect x="62" y="365" width="264" height="202" rx="24" fill="#ddd1f2"/><path d="M92 529C110 415 265 410 294 529Z" fill="#8266da"/><path d="M116 496C146 384 244 407 267 495" fill="none" stroke="#f7f2ec" stroke-width="9" stroke-linecap="round"/><circle cx="198" cy="478" r="13" fill="#f3b996"/><rect x="347" y="365" width="264" height="202" rx="24" fill="#f1bb97"/><circle cx="451" cy="465" r="62" fill="#27213c"/><circle cx="506" cy="465" r="62" fill="#faeedc"/><rect x="633" y="365" width="264" height="202" rx="24" fill="#b7c9af"/><path d="M674 519L764 396L854 519Z" fill="#f8f0df"/><path d="M710 519L799 396L855 519Z" fill="#596f54"/></g>
  <g fill="#89828f" font-family="Arial, sans-serif" font-size="10" letter-spacing="1"><text x="62" y="610">01 / BEZIER CURVES</text><text x="347" y="610">02 / PATHFINDER</text><text x="633" y="610">03 / SHAPE &amp; COLOR</text></g>
</svg>
